<?xml version="1.0" encoding="utf-8"?>
<svg viewBox="0 0 279.709 88.004" width="279.709" height="88.004" xmlns="http://www.w3.org/2000/svg">
  <path d="M 146.209 127.239 Q 146.209 126.893 146.374 126.658 Q 146.539 126.422 146.868 126.289 Q 147.198 126.156 147.732 126.156 Q 148.344 126.156 148.894 126.313 Q 149.443 126.47 149.93 126.815 L 149.93 125.951 Q 149.788 125.779 149.443 125.567 Q 149.098 125.355 148.572 125.198 Q 148.046 125.041 147.324 125.041 Q 145.973 125.041 145.235 125.661 Q 144.498 126.281 144.498 127.333 Q 144.498 128.071 144.843 128.589 Q 145.188 129.107 145.769 129.374 Q 146.35 129.641 147.025 129.641 Q 147.653 129.641 148.258 129.413 Q 148.862 129.186 149.263 128.715 Q 149.663 128.244 149.663 127.553 L 149.412 126.611 Q 149.412 127.16 149.16 127.553 Q 148.909 127.945 148.493 128.157 Q 148.077 128.369 147.559 128.369 Q 147.167 128.369 146.86 128.244 Q 146.554 128.118 146.382 127.859 Q 146.209 127.6 146.209 127.239 Z M 145.675 124.146 Q 145.848 124.036 146.162 123.871 Q 146.476 123.706 146.923 123.589 Q 147.371 123.471 147.873 123.471 Q 148.203 123.471 148.485 123.534 Q 148.768 123.596 148.98 123.738 Q 149.192 123.879 149.302 124.099 Q 149.412 124.319 149.412 124.664 L 149.412 129.484 L 151.076 129.484 L 151.076 124.334 Q 151.076 123.612 150.691 123.11 Q 150.307 122.607 149.616 122.348 Q 148.925 122.089 148.046 122.089 Q 147.025 122.089 146.256 122.372 Q 145.487 122.654 144.984 122.953 Z" transform="matrix(2.228595, 0, 0, 2.228595, -310.807404, -258.205292)" style="white-space: pre;"/>
  <path d="M 155.197 132.938 L 155.197 122.262 L 153.485 122.262 L 153.485 132.938 Z M 161.178 125.873 Q 161.178 124.648 160.692 123.808 Q 160.205 122.968 159.404 122.513 Q 158.603 122.058 157.661 122.058 Q 156.751 122.058 156.068 122.529 Q 155.385 123 155.008 123.848 Q 154.631 124.695 154.631 125.873 Q 154.631 127.035 155.008 127.89 Q 155.385 128.746 156.068 129.209 Q 156.751 129.672 157.661 129.672 Q 158.603 129.672 159.404 129.225 Q 160.205 128.777 160.692 127.922 Q 161.178 127.066 161.178 125.873 Z M 159.42 125.873 Q 159.42 126.595 159.122 127.098 Q 158.823 127.6 158.337 127.867 Q 157.85 128.134 157.253 128.134 Q 156.751 128.134 156.28 127.875 Q 155.809 127.616 155.503 127.113 Q 155.197 126.611 155.197 125.873 Q 155.197 125.135 155.503 124.633 Q 155.809 124.13 156.28 123.871 Q 156.751 123.612 157.253 123.612 Q 157.85 123.612 158.337 123.871 Q 158.823 124.13 159.122 124.641 Q 159.42 125.151 159.42 125.873 Z" transform="matrix(2.228595, 0, 0, 2.228595, -310.807404, -258.205292)" style="white-space: pre;"/>
  <path d="M 163.231 119.389 Q 163.231 119.813 163.553 120.119 Q 163.875 120.425 164.299 120.425 Q 164.754 120.425 165.068 120.119 Q 165.382 119.813 165.382 119.389 Q 165.382 118.949 165.068 118.651 Q 164.754 118.353 164.299 118.353 Q 163.875 118.353 163.553 118.651 Q 163.231 118.949 163.231 119.389 Z M 163.467 122.262 L 163.467 129.484 L 165.147 129.484 L 165.147 122.262 Z" transform="matrix(2.228595, 0, 0, 2.228595, -310.807404, -258.205292)" style="white-space: pre;"/>
  <path d="M 166.98 122.262 L 166.98 123.753 L 171.078 123.753 L 171.078 122.262 Z M 168.204 119.75 L 168.204 129.484 L 169.869 129.484 L 169.869 119.75 Z" transform="matrix(2.228595, 0, 0, 2.228595, -310.807404, -258.205292)" style="white-space: pre;"/>
  <path d="M 175.878 129.641 Q 177.134 129.641 178.029 129.146 Q 178.924 128.652 179.505 127.678 L 178.029 127.098 Q 177.7 127.678 177.182 127.961 Q 176.663 128.244 175.957 128.244 Q 175.298 128.244 174.842 127.961 Q 174.387 127.678 174.144 127.129 Q 173.9 126.579 173.916 125.81 Q 173.916 125.025 174.159 124.491 Q 174.403 123.958 174.85 123.675 Q 175.298 123.392 175.941 123.392 Q 176.475 123.392 176.875 123.628 Q 177.276 123.863 177.503 124.287 Q 177.731 124.711 177.731 125.292 Q 177.731 125.402 177.676 125.559 Q 177.621 125.716 177.574 125.81 L 178.092 125.088 L 173.209 125.088 L 173.209 126.265 L 179.552 126.265 Q 179.552 126.203 179.56 126.061 Q 179.568 125.92 179.568 125.794 Q 179.568 124.633 179.144 123.808 Q 178.72 122.984 177.912 122.545 Q 177.103 122.105 175.957 122.105 Q 174.811 122.105 173.963 122.568 Q 173.115 123.031 172.652 123.879 Q 172.189 124.727 172.189 125.873 Q 172.189 127.003 172.644 127.851 Q 173.1 128.699 173.939 129.17 Q 174.779 129.641 175.878 129.641 Z" transform="matrix(2.228595, 0, 0, 2.228595, -310.807404, -258.205292)" style="white-space: pre;"/>
  <path d="M 182.029 127.098 L 181.04 128.102 Q 181.354 128.511 181.825 128.88 Q 182.296 129.248 182.908 129.476 Q 183.52 129.704 184.274 129.704 Q 185.451 129.704 186.15 129.084 Q 186.849 128.463 186.849 127.443 Q 186.849 126.784 186.55 126.375 Q 186.252 125.967 185.75 125.685 Q 185.247 125.402 184.635 125.166 Q 184.195 124.994 183.842 124.837 Q 183.489 124.68 183.277 124.484 Q 183.065 124.287 183.065 124.036 Q 183.065 123.738 183.3 123.581 Q 183.536 123.424 183.913 123.424 Q 184.447 123.424 184.949 123.691 Q 185.451 123.958 185.797 124.381 L 186.739 123.377 Q 186.44 123.016 186.017 122.733 Q 185.593 122.45 185.067 122.278 Q 184.541 122.105 183.944 122.105 Q 183.285 122.105 182.712 122.317 Q 182.139 122.529 181.801 122.968 Q 181.464 123.408 181.464 124.067 Q 181.464 124.711 181.77 125.135 Q 182.076 125.559 182.555 125.818 Q 183.034 126.077 183.52 126.265 Q 184.007 126.438 184.368 126.603 Q 184.729 126.768 184.933 126.996 Q 185.137 127.223 185.137 127.537 Q 185.137 127.898 184.878 128.102 Q 184.619 128.306 184.164 128.306 Q 183.803 128.306 183.442 128.165 Q 183.081 128.024 182.735 127.757 Q 182.39 127.49 182.029 127.098 Z" transform="matrix(2.228595, 0, 0, 2.228595, -310.807404, -258.205292)" style="white-space: pre;"/>
  <path d="M 187.853 122.262 L 187.853 123.753 L 191.951 123.753 L 191.951 122.262 Z M 189.078 119.75 L 189.078 129.484 L 190.742 129.484 L 190.742 119.75 Z" transform="matrix(2.228595, 0, 0, 2.228595, -310.807404, -258.205292)" style="white-space: pre;"/>
  <path d="M 196.752 129.641 Q 198.008 129.641 198.902 129.146 Q 199.797 128.652 200.378 127.678 L 198.902 127.098 Q 198.573 127.678 198.055 127.961 Q 197.537 128.244 196.83 128.244 Q 196.171 128.244 195.715 127.961 Q 195.26 127.678 195.017 127.129 Q 194.773 126.579 194.789 125.81 Q 194.789 125.025 195.032 124.491 Q 195.276 123.958 195.723 123.675 Q 196.171 123.392 196.814 123.392 Q 197.348 123.392 197.748 123.628 Q 198.149 123.863 198.376 124.287 Q 198.604 124.711 198.604 125.292 Q 198.604 125.402 198.549 125.559 Q 198.494 125.716 198.447 125.81 L 198.965 125.088 L 194.083 125.088 L 194.083 126.265 L 200.425 126.265 Q 200.425 126.203 200.433 126.061 Q 200.441 125.92 200.441 125.794 Q 200.441 124.633 200.017 123.808 Q 199.593 122.984 198.785 122.545 Q 197.976 122.105 196.83 122.105 Q 195.684 122.105 194.836 122.568 Q 193.988 123.031 193.525 123.879 Q 193.062 124.727 193.062 125.873 Q 193.062 127.003 193.517 127.851 Q 193.973 128.699 194.813 129.17 Q 195.653 129.641 196.752 129.641 Z" transform="matrix(2.228595, 0, 0, 2.228595, -310.807404, -258.205292)" style="white-space: pre;"/>
  <path d="M 204.252 122.262 L 202.572 122.262 L 202.572 129.484 L 204.252 129.484 Z M 206.403 124.067 L 207.235 122.639 Q 206.984 122.34 206.638 122.215 Q 206.293 122.089 205.901 122.089 Q 205.351 122.089 204.841 122.49 Q 204.331 122.89 204.009 123.557 Q 203.687 124.224 203.687 125.088 L 204.252 125.418 Q 204.252 124.9 204.37 124.515 Q 204.488 124.13 204.754 123.91 Q 205.021 123.691 205.445 123.691 Q 205.759 123.691 205.971 123.785 Q 206.183 123.879 206.403 124.067 Z" transform="matrix(2.228595, 0, 0, 2.228595, -310.807404, -258.205292)" style="white-space: pre;"/>
  <path d="M 224.006 253.068 Q 224.006 252.122 224.424 251.396 Q 224.842 250.67 225.557 250.252 Q 226.272 249.834 227.152 249.834 Q 227.856 249.834 228.516 250.054 Q 229.176 250.274 229.693 250.659 Q 230.21 251.044 230.452 251.55 L 230.452 248.91 Q 229.924 248.404 229.022 248.096 Q 228.12 247.788 227.042 247.788 Q 225.502 247.788 224.259 248.459 Q 223.016 249.13 222.29 250.318 Q 221.564 251.506 221.564 253.068 Q 221.564 254.608 222.29 255.807 Q 223.016 257.006 224.259 257.677 Q 225.502 258.348 227.042 258.348 Q 228.12 258.348 229.022 258.04 Q 229.924 257.732 230.452 257.204 L 230.452 254.586 Q 230.21 255.07 229.704 255.455 Q 229.198 255.84 228.549 256.071 Q 227.9 256.302 227.152 256.302 Q 226.272 256.302 225.557 255.884 Q 224.842 255.466 224.424 254.74 Q 224.006 254.014 224.006 253.068 Z" transform="matrix(3.057906, 0, 0, 2.93236, -667.604187, -683.520264)" style="stroke: rgb(186, 225, 58); stroke-linejoin: round; stroke-width: 0px; white-space: pre;"/>
  <path d="M 237.419 248.008 L 235.065 248.008 L 235.065 258.128 L 237.419 258.128 Z M 240.433 250.538 L 241.599 248.536 Q 241.247 248.118 240.763 247.942 Q 240.279 247.766 239.729 247.766 Q 238.959 247.766 238.244 248.327 Q 237.529 248.888 237.078 249.823 Q 236.627 250.758 236.627 251.968 L 237.419 252.43 Q 237.419 251.704 237.584 251.165 Q 237.749 250.626 238.123 250.318 Q 238.497 250.01 239.091 250.01 Q 239.531 250.01 239.828 250.142 Q 240.125 250.274 240.433 250.538 Z" transform="matrix(3.057906, 0, 0, 2.93236, -667.604187, -683.520264)" style="stroke: rgb(186, 225, 58); stroke-linejoin: round; stroke-width: 0px; white-space: pre;"/>
  <path d="M 249.297 258.348 Q 251.057 258.348 252.311 257.655 Q 253.565 256.962 254.379 255.598 L 252.311 254.784 Q 251.849 255.598 251.123 255.994 Q 250.397 256.39 249.407 256.39 Q 248.483 256.39 247.845 255.994 Q 247.207 255.598 246.866 254.828 Q 246.525 254.058 246.547 252.98 Q 246.547 251.88 246.888 251.132 Q 247.229 250.384 247.856 249.988 Q 248.483 249.592 249.385 249.592 Q 250.133 249.592 250.694 249.922 Q 251.255 250.252 251.574 250.846 Q 251.893 251.44 251.893 252.254 Q 251.893 252.408 251.816 252.628 Q 251.739 252.848 251.673 252.98 L 252.399 251.968 L 245.557 251.968 L 245.557 253.618 L 254.445 253.618 Q 254.445 253.53 254.456 253.332 Q 254.467 253.134 254.467 252.958 Q 254.467 251.33 253.873 250.175 Q 253.279 249.02 252.146 248.404 Q 251.013 247.788 249.407 247.788 Q 247.801 247.788 246.613 248.437 Q 245.425 249.086 244.776 250.274 Q 244.127 251.462 244.127 253.068 Q 244.127 254.652 244.765 255.84 Q 245.403 257.028 246.58 257.688 Q 247.757 258.348 249.297 258.348 Z" transform="matrix(3.057906, 0, 0, 2.93236, -667.604187, -683.520264)" style="stroke: rgb(186, 225, 58); stroke-linejoin: round; stroke-width: 0px; white-space: pre;"/>
  <path d="M 260.252 254.982 Q 260.252 254.498 260.483 254.168 Q 260.714 253.838 261.176 253.651 Q 261.638 253.464 262.386 253.464 Q 263.244 253.464 264.014 253.684 Q 264.784 253.904 265.466 254.388 L 265.466 253.178 Q 265.268 252.936 264.784 252.639 Q 264.3 252.342 263.563 252.122 Q 262.826 251.902 261.814 251.902 Q 259.922 251.902 258.888 252.771 Q 257.854 253.64 257.854 255.114 Q 257.854 256.148 258.338 256.874 Q 258.822 257.6 259.636 257.974 Q 260.45 258.348 261.396 258.348 Q 262.276 258.348 263.123 258.029 Q 263.97 257.71 264.531 257.05 Q 265.092 256.39 265.092 255.422 L 264.74 254.102 Q 264.74 254.872 264.388 255.422 Q 264.036 255.972 263.453 256.269 Q 262.87 256.566 262.144 256.566 Q 261.594 256.566 261.165 256.39 Q 260.736 256.214 260.494 255.851 Q 260.252 255.488 260.252 254.982 Z M 259.504 250.648 Q 259.746 250.494 260.186 250.263 Q 260.626 250.032 261.253 249.867 Q 261.88 249.702 262.584 249.702 Q 263.046 249.702 263.442 249.79 Q 263.838 249.878 264.135 250.076 Q 264.432 250.274 264.586 250.582 Q 264.74 250.89 264.74 251.374 L 264.74 258.128 L 267.072 258.128 L 267.072 250.912 Q 267.072 249.9 266.533 249.196 Q 265.994 248.492 265.026 248.129 Q 264.058 247.766 262.826 247.766 Q 261.396 247.766 260.318 248.162 Q 259.24 248.558 258.536 248.976 Z" transform="matrix(3.057906, 0, 0, 2.93236, -667.604187, -683.520264)" style="stroke: rgb(186, 225, 58); stroke-linejoin: round; stroke-width: 0px; white-space: pre;"/>
  <path d="M 270.435 248.008 L 270.435 250.098 L 276.177 250.098 L 276.177 248.008 Z M 272.151 244.488 L 272.151 258.128 L 274.483 258.128 L 274.483 244.488 Z" transform="matrix(3.057906, 0, 0, 2.93236, -667.604187, -683.520264)" style="stroke: rgb(186, 225, 58); stroke-linejoin: round; stroke-width: 0px; white-space: pre;"/>
  <path d="M 279.032 253.068 Q 279.032 254.608 279.747 255.807 Q 280.462 257.006 281.705 257.677 Q 282.948 258.348 284.488 258.348 Q 286.05 258.348 287.282 257.677 Q 288.514 257.006 289.229 255.807 Q 289.944 254.608 289.944 253.068 Q 289.944 251.506 289.229 250.318 Q 288.514 249.13 287.282 248.459 Q 286.05 247.788 284.488 247.788 Q 282.948 247.788 281.705 248.459 Q 280.462 249.13 279.747 250.318 Q 279.032 251.506 279.032 253.068 Z M 281.474 253.068 Q 281.474 252.122 281.87 251.396 Q 282.266 250.67 282.948 250.274 Q 283.63 249.878 284.488 249.878 Q 285.346 249.878 286.028 250.274 Q 286.71 250.67 287.106 251.396 Q 287.502 252.122 287.502 253.068 Q 287.502 254.014 287.106 254.729 Q 286.71 255.444 286.028 255.851 Q 285.346 256.258 284.488 256.258 Q 283.63 256.258 282.948 255.851 Q 282.266 255.444 281.87 254.729 Q 281.474 254.014 281.474 253.068 Z" transform="matrix(3.057906, 0, 0, 2.93236, -667.604187, -683.520264)" style="stroke: rgb(186, 225, 58); stroke-linejoin: round; stroke-width: 0px; white-space: pre;"/>
  <path d="M 296.567 248.008 L 294.213 248.008 L 294.213 258.128 L 296.567 258.128 Z M 299.581 250.538 L 300.747 248.536 Q 300.395 248.118 299.911 247.942 Q 299.427 247.766 298.877 247.766 Q 298.107 247.766 297.392 248.327 Q 296.677 248.888 296.226 249.823 Q 295.775 250.758 295.775 251.968 L 296.567 252.43 Q 296.567 251.704 296.732 251.165 Q 296.897 250.626 297.271 250.318 Q 297.645 250.01 298.239 250.01 Q 298.679 250.01 298.976 250.142 Q 299.273 250.274 299.581 250.538 Z" transform="matrix(3.057906, 0, 0, 2.93236, -667.604187, -683.520264)" style="stroke: rgb(186, 225, 58); stroke-linejoin: round; stroke-width: 0px; white-space: pre;"/>
</svg>